<svg xmlns="http://www.w3.org/2000/svg" viewBox="0 0 1600 1260" font-family="Georgia,serif">
<rect width="1600" height="1260" fill="#a8c4d4"/>
<!-- GENERADO desde geografia.json. Nombres de capital: canon Onegai. Epoca: 2000 b.f.. -->
<text x="800" y="46" font-size="34" text-anchor="middle" fill="#10202c">EGAROTH — 2000 b.f.</text>
<text x="800" y="72" font-size="16" text-anchor="middle" fill="#2c4454" font-style="italic">ERA XIII — LAS CATORCE GRANDES CRUZADAS (2000 – 1058 b.f.)</text>
<polygon points="170,350 256,347 299,415 436,453 516,453 518,598 457,694 382,666 272,628 209,552 150,425" fill="#7a9b5c" stroke="#33404a" stroke-width="2" opacity="0.85"/>
<polygon points="483,356 557,339 760,345 859,332 888,343 899,420 869,491 806,496 644,474 535,470 485,390" fill="#d18a3d" stroke="#33404a" stroke-width="2" opacity="0.85"/>
<polygon points="162,937 241,939 294,940 386,942 427,945 443,1041 454,1141 329,1159 225,1140 162,1087 179,1017" fill="#d18a3d" stroke="#33404a" stroke-width="2" opacity="0.85"/>
<polygon points="617,485 713,497 795,509 805,539 812,577 818,613 774,590 669,595 613,588" fill="#8fae66" stroke="#33404a" stroke-width="2" opacity="0.85"/>
<polygon points="455,690 531,758 688,843 615,867 525,911 550,1022 495,1111 452,1137 445,1045 417,838 466,746" fill="#8fb8c9" stroke="#33404a" stroke-width="2" opacity="0.85"/>
<polygon points="230,860 260,866 301,847 349,859 378,865 419,880 427,934 327,937 286,930 150,937 121,1161 84,1145 99,1107 123,1010 117,1015 110,1010 93,1045 67,1087 32,1081 32,1041 76,979 162,903 164,863 189,839" fill="#b5495b" stroke="#33404a" stroke-width="2" opacity="0.85"/>
<polygon points="1129,686 1187,711 1218,771 1180,843 1072,894 1091,988 1236,1022 1392,1007 1440,1015 1422,1121 1334,1122 1313,1087 1199,1164 1064,1150 934,1064 966,969 968,890" fill="#4f7fa8" stroke="#33404a" stroke-width="2" opacity="0.85"/>
<polygon points="33,323 61,315 126,492 91,571 40,519 59,437 32,393" fill="#4f7fa8" stroke="#33404a" stroke-width="2" opacity="0.85"/>
<polygon points="1209,823 1224,794 1290,886 1310,920 1333,951 1235,1020 1095,985 1072,895 1143,869" fill="#6b8f52" stroke="#33404a" stroke-width="2" opacity="0.85"/>
<polygon points="225,51 280,20 430,15 640,20 820,30 826,64 832,119 829,172 817,207 720,235 511,216 420,214 339,206 260,151 233,116" fill="#d9c15a" stroke="#33404a" stroke-width="2" opacity="0.85"/>
<polygon points="123,141 151,128 171,129 188,134 207,161 202,233 152,252 116,253 97,210 96,169" fill="#d99bb0" stroke="#33404a" stroke-width="2" opacity="0.85"/>
<polygon points="1343,26 1483,18 1538,31 1573,96 1535,154 1483,193 1435,211 1385,180" fill="#9b7cc0" stroke="#33404a" stroke-width="2" opacity="0.85"/>
<polygon points="1120,250 1197,263 1323,330 1480,248 1478,355 1421,480 1421,537 1372,530 1228,489 1145,511 1095,395" fill="#8a6a3f" stroke="#33404a" stroke-width="2" opacity="0.85"/>
<polygon points="1155,545 1222,578 1246,616 1235,668 1168,694 1125,655" fill="#9a9a9a" stroke="#33404a" stroke-width="2" opacity="0.85"/>
<polygon points="1026,70 1082,35 1228,32 1300,50 1341,89 1341,159 1304,184 1201,197 1093,188 1022,141" fill="#ece6d8" stroke="#33404a" stroke-width="2" opacity="0.85"/>
<polygon points="1209,749 1440,787 1406,923 1438,1004 1334,1010 1248,1011 1348,952 1282,868" fill="#c97a2e" stroke="#33404a" stroke-width="2" opacity="0.85"/>
<polygon points="1261,600 1333,598 1442,659 1442,776 1306,763 1192,717 1255,660" fill="#e8d98a" stroke="#33404a" stroke-width="2" opacity="0.85"/>
<polygon points="1143,518 1229,496 1415,539 1426,586 1442,638 1325,589 1223,577" fill="#e0b593" stroke="#33404a" stroke-width="2" opacity="0.85"/>
<polygon points="520,480 611,477 607,613 773,589 821,617 843,728 767,816 701,845 533,758 467,693 521,607 527,503" fill="#b98c4a" stroke="#33404a" stroke-width="2" opacity="0.85"/>
<circle cx="154" cy="171" r="7" fill="#fff4b0" stroke="#8a6d1f" stroke-width="2"/>
<circle cx="1398" cy="170" r="7" fill="#fff4b0" stroke="#8a6d1f" stroke-width="2"/>
<circle cx="1381" cy="939" r="7" fill="#fff4b0" stroke="#8a6d1f" stroke-width="2"/>
<circle cx="177" cy="395" r="7" fill="#fff4b0" stroke="#8a6d1f" stroke-width="2"/>
<circle cx="216" cy="1025" r="7" fill="#fff4b0" stroke="#8a6d1f" stroke-width="2"/>
<circle cx="563" cy="860" r="6" fill="#f2e3b0" stroke="#2b2b2b" stroke-width="1.5"/>
<text x="572" y="864" font-size="15" fill="#1a1a1a">Numandum</text>
<circle cx="512" cy="810" r="3" fill="#e8e8e8" stroke="#2b2b2b" stroke-width="1.5"/>
<circle cx="209" cy="396" r="3" fill="#e8e8e8" stroke="#2b2b2b" stroke-width="1.5"/>
<circle cx="268" cy="521" r="6" fill="#f2e3b0" stroke="#2b2b2b" stroke-width="1.5"/>
<text x="277" y="525" font-size="15" fill="#1a1a1a">Umedan</text>
<circle cx="406" cy="485" r="3" fill="#e8e8e8" stroke="#2b2b2b" stroke-width="1.5"/>
<circle cx="485" cy="524" r="3" fill="#e8e8e8" stroke="#2b2b2b" stroke-width="1.5"/>
<circle cx="483" cy="589" r="3" fill="#e8e8e8" stroke="#2b2b2b" stroke-width="1.5"/>
<circle cx="409" cy="650" r="3" fill="#e8e8e8" stroke="#2b2b2b" stroke-width="1.5"/>
<circle cx="322" cy="609" r="3" fill="#e8e8e8" stroke="#2b2b2b" stroke-width="1.5"/>
<circle cx="342" cy="543" r="3" fill="#e8e8e8" stroke="#2b2b2b" stroke-width="1.5"/>
<circle cx="566" cy="524" r="3" fill="#e8e8e8" stroke="#2b2b2b" stroke-width="1.5"/>
<circle cx="552" cy="599" r="3" fill="#e8e8e8" stroke="#2b2b2b" stroke-width="1.5"/>
<circle cx="614" cy="635" r="3" fill="#e8e8e8" stroke="#2b2b2b" stroke-width="1.5"/>
<circle cx="578" cy="669" r="3" fill="#e8e8e8" stroke="#2b2b2b" stroke-width="1.5"/>
<circle cx="579" cy="742" r="3" fill="#e8e8e8" stroke="#2b2b2b" stroke-width="1.5"/>
<circle cx="680" cy="732" r="3" fill="#e8e8e8" stroke="#2b2b2b" stroke-width="1.5"/>
<circle cx="722" cy="698" r="6" fill="#f2e3b0" stroke="#2b2b2b" stroke-width="1.5"/>
<text x="731" y="702" font-size="15" fill="#1a1a1a">Bomengrid</text>
<circle cx="788" cy="677" r="3" fill="#e8e8e8" stroke="#2b2b2b" stroke-width="1.5"/>
<circle cx="742" cy="545" r="6" fill="#f2e3b0" stroke="#2b2b2b" stroke-width="1.5"/>
<text x="751" y="549" font-size="15" fill="#1a1a1a">Havar'gruztak</text>
<circle cx="393" cy="891" r="3" fill="#e8e8e8" stroke="#2b2b2b" stroke-width="1.5"/>
<circle cx="367" cy="904" r="3" fill="#e8e8e8" stroke="#2b2b2b" stroke-width="1.5"/>
<circle cx="347" cy="910" r="6" fill="#f2e3b0" stroke="#2b2b2b" stroke-width="1.5"/>
<text x="356" y="914" font-size="15" fill="#1a1a1a">Finesaux</text>
<circle cx="339" cy="877" r="3" fill="#e8e8e8" stroke="#2b2b2b" stroke-width="1.5"/>
<circle cx="282" cy="873" r="3" fill="#e8e8e8" stroke="#2b2b2b" stroke-width="1.5"/>
<circle cx="245" cy="911" r="3" fill="#e8e8e8" stroke="#2b2b2b" stroke-width="1.5"/>
<circle cx="204" cy="919" r="3" fill="#e8e8e8" stroke="#2b2b2b" stroke-width="1.5"/>
<circle cx="210" cy="887" r="3" fill="#e8e8e8" stroke="#2b2b2b" stroke-width="1.5"/>
<circle cx="463" cy="850" r="3" fill="#e8e8e8" stroke="#2b2b2b" stroke-width="1.5"/>
<circle cx="514" cy="888" r="3" fill="#e8e8e8" stroke="#2b2b2b" stroke-width="1.5"/>
<circle cx="500" cy="932" r="3" fill="#e8e8e8" stroke="#2b2b2b" stroke-width="1.5"/>
<circle cx="464" cy="991" r="3" fill="#e8e8e8" stroke="#2b2b2b" stroke-width="1.5"/>
<circle cx="487" cy="1099" r="3" fill="#e8e8e8" stroke="#2b2b2b" stroke-width="1.5"/>
<circle cx="522" cy="1011" r="3" fill="#e8e8e8" stroke="#2b2b2b" stroke-width="1.5"/>
<circle cx="510" cy="1070" r="3" fill="#e8e8e8" stroke="#2b2b2b" stroke-width="1.5"/>
<circle cx="280" cy="961" r="3" fill="#e8e8e8" stroke="#2b2b2b" stroke-width="1.5"/>
<circle cx="226" cy="999" r="6" fill="#f2e3b0" stroke="#2b2b2b" stroke-width="1.5"/>
<text x="235" y="1003" font-size="15" fill="#1a1a1a">Ranmont</text>
<circle cx="400" cy="980" r="3" fill="#e8e8e8" stroke="#2b2b2b" stroke-width="1.5"/>
<circle cx="391" cy="1066" r="3" fill="#e8e8e8" stroke="#2b2b2b" stroke-width="1.5"/>
<circle cx="368" cy="1134" r="3" fill="#e8e8e8" stroke="#2b2b2b" stroke-width="1.5"/>
<circle cx="254" cy="1057" r="3" fill="#e8e8e8" stroke="#2b2b2b" stroke-width="1.5"/>
<circle cx="319" cy="1043" r="3" fill="#e8e8e8" stroke="#2b2b2b" stroke-width="1.5"/>
<circle cx="174" cy="1075" r="3" fill="#e8e8e8" stroke="#2b2b2b" stroke-width="1.5"/>
<circle cx="99" cy="992" r="3" fill="#e8e8e8" stroke="#2b2b2b" stroke-width="1.5"/>
<circle cx="51" cy="1060" r="3" fill="#e8e8e8" stroke="#2b2b2b" stroke-width="1.5"/>
<circle cx="112" cy="1128" r="3" fill="#e8e8e8" stroke="#2b2b2b" stroke-width="1.5"/>
<circle cx="1288" cy="446" r="6" fill="#f2e3b0" stroke="#2b2b2b" stroke-width="1.5"/>
<text x="1297" y="450" font-size="15" fill="#1a1a1a">Guskedor</text>
<circle cx="1150" cy="477" r="3" fill="#e8e8e8" stroke="#2b2b2b" stroke-width="1.5"/>
<circle cx="1502" cy="98" r="6" fill="#f2e3b0" stroke="#2b2b2b" stroke-width="1.5"/>
<text x="1511" y="102" font-size="15" fill="#1a1a1a">Venordemn</text>
<circle cx="1384" cy="41" r="3" fill="#e8e8e8" stroke="#2b2b2b" stroke-width="1.5"/>
<circle cx="1429" cy="41" r="3" fill="#e8e8e8" stroke="#2b2b2b" stroke-width="1.5"/>
<circle cx="1391" cy="122" r="3" fill="#e8e8e8" stroke="#2b2b2b" stroke-width="1.5"/>
<circle cx="1418" cy="168" r="3" fill="#e8e8e8" stroke="#2b2b2b" stroke-width="1.5"/>
<circle cx="1481" cy="142" r="3" fill="#e8e8e8" stroke="#2b2b2b" stroke-width="1.5"/>
<circle cx="1514" cy="51" r="3" fill="#e8e8e8" stroke="#2b2b2b" stroke-width="1.5"/>
<circle cx="745" cy="384" r="6" fill="#f2e3b0" stroke="#2b2b2b" stroke-width="1.5"/>
<text x="754" y="388" font-size="15" fill="#1a1a1a">Capital I</text>
<circle cx="1299" cy="537" r="6" fill="#f2e3b0" stroke="#2b2b2b" stroke-width="1.5"/>
<text x="1308" y="541" font-size="15" fill="#1a1a1a">Klimnebra</text>
<circle cx="1407" cy="716" r="6" fill="#f2e3b0" stroke="#2b2b2b" stroke-width="1.5"/>
<text x="1416" y="720" font-size="15" fill="#1a1a1a">Teshkorr</text>
<circle cx="1282" cy="624" r="3" fill="#e8e8e8" stroke="#2b2b2b" stroke-width="1.5"/>
<circle cx="1318" cy="705" r="3" fill="#e8e8e8" stroke="#2b2b2b" stroke-width="1.5"/>
<circle cx="1368" cy="914" r="6" fill="#f2e3b0" stroke="#2b2b2b" stroke-width="1.5"/>
<text x="1377" y="918" font-size="15" fill="#1a1a1a">Saif-l'sa</text>
<circle cx="1221" cy="824" r="6" fill="#f2e3b0" stroke="#2b2b2b" stroke-width="1.5"/>
<text x="1230" y="828" font-size="15" fill="#1a1a1a">Dhin Thyraxion</text>
<circle cx="539" cy="372" r="3" fill="#e8e8e8" stroke="#2b2b2b" stroke-width="1.5"/>
<circle cx="521" cy="437" r="3" fill="#e8e8e8" stroke="#2b2b2b" stroke-width="1.5"/>
<circle cx="855" cy="466" r="3" fill="#e8e8e8" stroke="#2b2b2b" stroke-width="1.5"/>
<circle cx="874" cy="344" r="3" fill="#e8e8e8" stroke="#2b2b2b" stroke-width="1.5"/>
<circle cx="1107" cy="911" r="3" fill="#e8e8e8" stroke="#2b2b2b" stroke-width="1.5"/>
<circle cx="1202" cy="992" r="3" fill="#e8e8e8" stroke="#2b2b2b" stroke-width="1.5"/>
<circle cx="1251" cy="907" r="3" fill="#e8e8e8" stroke="#2b2b2b" stroke-width="1.5"/>
<circle cx="1283" cy="857" r="3" fill="#e8e8e8" stroke="#2b2b2b" stroke-width="1.5"/>
<circle cx="1303" cy="779" r="3" fill="#e8e8e8" stroke="#2b2b2b" stroke-width="1.5"/>
<circle cx="1368" cy="866" r="3" fill="#e8e8e8" stroke="#2b2b2b" stroke-width="1.5"/>
<circle cx="1391" cy="816" r="3" fill="#e8e8e8" stroke="#2b2b2b" stroke-width="1.5"/>
<circle cx="625" cy="368" r="3" fill="#e8e8e8" stroke="#2b2b2b" stroke-width="1.5"/>
<circle cx="1334" cy="987" r="3" fill="#e8e8e8" stroke="#2b2b2b" stroke-width="1.5"/>
<circle cx="645" cy="509" r="3" fill="#e8e8e8" stroke="#2b2b2b" stroke-width="1.5"/>
<circle cx="647" cy="580" r="3" fill="#e8e8e8" stroke="#2b2b2b" stroke-width="1.5"/>
<circle cx="690" cy="543" r="3" fill="#e8e8e8" stroke="#2b2b2b" stroke-width="1.5"/>
<circle cx="782" cy="526" r="3" fill="#e8e8e8" stroke="#2b2b2b" stroke-width="1.5"/>
<circle cx="795" cy="584" r="3" fill="#e8e8e8" stroke="#2b2b2b" stroke-width="1.5"/>
<circle cx="717" cy="511" r="3" fill="#e8e8e8" stroke="#2b2b2b" stroke-width="1.5"/>
<circle cx="82" cy="502" r="6" fill="#f2e3b0" stroke="#2b2b2b" stroke-width="1.5"/>
<text x="91" y="506" font-size="15" fill="#1a1a1a">Naka't-ol</text>
<circle cx="975" cy="991" r="3" fill="#e8e8e8" stroke="#2b2b2b" stroke-width="1.5"/>
<circle cx="1436" cy="312" r="3" fill="#e8e8e8" stroke="#2b2b2b" stroke-width="1.5"/>
<circle cx="1392" cy="504" r="3" fill="#e8e8e8" stroke="#2b2b2b" stroke-width="1.5"/>
<circle cx="1144" cy="304" r="3" fill="#e8e8e8" stroke="#2b2b2b" stroke-width="1.5"/>
<circle cx="1152" cy="386" r="3" fill="#e8e8e8" stroke="#2b2b2b" stroke-width="1.5"/>
<circle cx="1211" cy="464" r="3" fill="#e8e8e8" stroke="#2b2b2b" stroke-width="1.5"/>
<circle cx="1379" cy="387" r="3" fill="#e8e8e8" stroke="#2b2b2b" stroke-width="1.5"/>
<circle cx="1355" cy="466" r="3" fill="#e8e8e8" stroke="#2b2b2b" stroke-width="1.5"/>
<circle cx="1184" cy="523" r="3" fill="#e8e8e8" stroke="#2b2b2b" stroke-width="1.5"/>
<circle cx="1266" cy="556" r="3" fill="#e8e8e8" stroke="#2b2b2b" stroke-width="1.5"/>
<circle cx="1338" cy="561" r="3" fill="#e8e8e8" stroke="#2b2b2b" stroke-width="1.5"/>
<circle cx="1397" cy="587" r="3" fill="#e8e8e8" stroke="#2b2b2b" stroke-width="1.5"/>
<circle cx="1348" cy="635" r="3" fill="#e8e8e8" stroke="#2b2b2b" stroke-width="1.5"/>
<circle cx="1366" cy="700" r="3" fill="#e8e8e8" stroke="#2b2b2b" stroke-width="1.5"/>
<text x="333" y="507" font-size="21" font-weight="bold" fill="#101820" text-anchor="middle" opacity="0.75">Ecla</text>
<text x="708" y="405" font-size="21" font-weight="bold" fill="#101820" text-anchor="middle" opacity="0.75">Ostad</text>
<text x="300" y="1026" font-size="21" font-weight="bold" fill="#101820" text-anchor="middle" opacity="0.75">Aegroum</text>
<text x="735" y="555" font-size="21" font-weight="bold" fill="#101820" text-anchor="middle" opacity="0.75">Gliaddokx</text>
<text x="513" y="906" font-size="21" font-weight="bold" fill="#101820" text-anchor="middle" opacity="0.75">Bastrea</text>
<text x="192" y="967" font-size="21" font-weight="bold" fill="#101820" text-anchor="middle" opacity="0.75">Ascaria</text>
<text x="1185" y="971" font-size="21" font-weight="bold" fill="#101820" text-anchor="middle" opacity="0.75">Tabaxi Continental</text>
<text x="63" y="436" font-size="21" font-weight="bold" fill="#101820" text-anchor="middle" opacity="0.75">Tabaxi Occidental</text>
<text x="1212" y="905" font-size="21" font-weight="bold" fill="#101820" text-anchor="middle" opacity="0.75">Wulcain</text>
<text x="545" y="122" font-size="21" font-weight="bold" fill="#101820" text-anchor="middle" opacity="0.75">Aeon</text>
<text x="150" y="181" font-size="21" font-weight="bold" fill="#101820" text-anchor="middle" opacity="0.75">Ayashii</text>
<text x="1472" y="114" font-size="21" font-weight="bold" fill="#101820" text-anchor="middle" opacity="0.75">Mistarium</text>
<text x="1298" y="399" font-size="21" font-weight="bold" fill="#101820" text-anchor="middle" opacity="0.75">Gongorguma</text>
<text x="1192" y="626" font-size="21" font-weight="bold" fill="#101820" text-anchor="middle" opacity="0.75">Ashye</text>
<text x="1194" y="114" font-size="21" font-weight="bold" fill="#101820" text-anchor="middle" opacity="0.75">Nocturnsea</text>
<text x="1338" y="913" font-size="21" font-weight="bold" fill="#101820" text-anchor="middle" opacity="0.75">Esmua</text>
<text x="1319" y="682" font-size="21" font-weight="bold" fill="#101820" text-anchor="middle" opacity="0.75">Bosmurg</text>
<text x="1315" y="563" font-size="21" font-weight="bold" fill="#101820" text-anchor="middle" opacity="0.75">Choubar</text>
<text x="641" y="644" font-size="21" font-weight="bold" fill="#101820" text-anchor="middle" opacity="0.75">Udrax</text>
<text x="24" y="1244" font-size="13" fill="#24404f">Instantanea del ano en que empieza la Primera Cruzada · generado desde el atlas, no editar a mano</text>
</svg>